<?xml version="1.0" encoding="utf-8"?>
<svg version="1.1" xmlns="http://www.w3.org/2000/svg" x="0px" y="0px" width="248.696px" height="150.395px" viewBox="0 0 248.696 150.395">
<g id="Foreground">
	<path fill-rule="evenodd" clip-rule="evenodd" d="M126.367,104.049l11.867-11.711c0.193-0.194,0.309-0.425,0.309-0.696c0-0.542-0.425-0.966-0.966-0.966c-0.387,0-0.58,0.115-0.966,0.502l-11.209,11.093l-11.209-11.093c-0.387-0.387-0.581-0.502-0.967-0.502c-0.541,0-0.966,0.424-0.966,0.966c0,0.271,0.115,0.502,0.309,0.696l11.867,11.711v11.558c0,0.542,0.425,0.967,0.966,0.967c0.541,0,0.966-0.425,0.966-0.967V104.049z M166.18,91.641v23.965c0,0.542-0.424,0.967-0.966,0.967l-0.73-0.002c-5.956,0.002-9.396-2.974-12.605-6.568l-3.324-3.75h-5.18v9.393c0,0.541-0.425,0.927-0.966,0.927c-0.542,0-0.966-0.425-0.966-0.967V91.834c0-0.542,0.424-0.967,0.966-0.967h6.533c4.252,0,7.692,3.441,7.692,7.692c0,3.556-2.358,6.494-5.604,7.422l2.396,2.666c4.134,4.628,7.414,5.943,10.823,5.991V91.641c0-0.542,0.424-0.965,0.966-0.965C165.756,90.675,166.18,91.099,166.18,91.641z M143.375,104.396h5.373c3.208,0,5.837-2.629,5.837-5.837c0-3.209-2.629-5.837-5.837-5.837h-5.373V104.396z M169.853,116.496c-0.502-0.271-0.695-0.813-0.463-1.315l11.441-23.849c0.348-0.735,1.121-0.851,1.508-0.851c0.386,0,1.16,0.116,1.507,0.851l11.442,23.849c0.232,0.502,0.039,1.044-0.463,1.315c-0.503,0.231-1.044,0-1.276-0.464l-3.789-7.847h-14.842l-3.789,7.847C170.896,116.496,170.355,116.728,169.853,116.496z M182.338,92.801l-6.533,13.529h13.065L182.338,92.801z M53.311,103.624c0,7.267,5.876,13.142,13.143,13.142c7.267,0,13.143-5.875,13.143-13.142c0-7.267-5.875-13.143-13.143-13.143C59.187,90.481,53.311,96.357,53.311,103.624z M55.244,103.624c0-6.185,5.025-11.209,11.209-11.209s11.21,5.024,11.21,11.209c0,6.185-5.025,11.209-11.21,11.209S55.244,109.809,55.244,103.624z M107.426,116.071c0.387,0.386,0.58,0.502,0.967,0.502c0.541,0,0.966-0.425,0.966-0.967V91.641c0-0.542-0.425-0.966-0.966-0.966s-0.967,0.424-0.967,0.966v21.646L85.007,91.178c-0.387-0.387-0.58-0.502-0.966-0.502c-0.542,0-0.966,0.424-0.966,0.966v23.965c0,0.542,0.425,0.967,0.966,0.967s0.966-0.425,0.966-0.967V93.96L107.426,116.071z"/>
	<path fill-rule="evenodd" clip-rule="evenodd" d="M116.667,34.693c-0.418-1.283-0.815-2.586-1.194-3.897c-1.367,1.101-2.714,2.223-4.031,3.346c-0.879,0.812-1.524,1.8-1.921,2.873c0.952,0.635,2.055,1.055,3.243,1.195c1.725,0.134,3.474,0.25,5.228,0.337C117.526,37.264,117.083,35.977,116.667,34.693z"/>
	<path d="M0,150.395h7.27v-1.184H1.332v-11.396H0V150.395z M11.1,150.395h1.351v-12.58H11.1V150.395z M17.242,150.395h1.332v-5.384h5.661v-1.203h-5.661v-4.81h6.235v-1.184h-7.566V150.395z M28.823,150.395h7.918v-1.184h-6.586v-4.551h5.643v-1.166h-5.643v-4.495h6.328v-1.184h-7.659V150.395z"/>
</g>
</svg>
